<svg xmlns="http://www.w3.org/2000/svg" xmlns:xlink="http://www.w3.org/1999/xlink" xmlns:svgjs="http://svgjs.com/svgjs" width="288" height="288" version="1.1" style=""><rect id="backgroundrect" width="100%" height="100%" x="0" y="0" fill="none" stroke="none"/><defs id="SvgjsDefs1024"/><g class="currentLayer" style=""><title>Layer 1</title><g id="SvgjsG1025" class="selected" fill="#e87e08" fill-opacity="1"><svg xmlns="http://www.w3.org/2000/svg" width="288" height="288" viewBox="0 -53 384 384" id="svg_3"><path d="M368 154.667969h-352c-8.832031 0-16-7.167969-16-16s7.167969-16 16-16h352c8.832031 0 16 7.167969 16 16s-7.167969 16-16 16zm0 0M368 32h-352c-8.832031 0-16-7.167969-16-16s7.167969-16 16-16h352c8.832031 0 16 7.167969 16 16s-7.167969 16-16 16zm0 0M368 277.332031h-352c-8.832031 0-16-7.167969-16-16s7.167969-16 16-16h352c8.832031 0 16 7.167969 16 16s-7.167969 16-16 16zm0 0" fill="#e87e08" class="color000 svgShape" id="svg_4" fill-opacity="1"/></svg></g></g></svg>